<svg xmlns="http://www.w3.org/2000/svg" viewBox="0 0 900 900"><title>Recurso 1aphex</title><g id="Capa_2" data-name="Capa 2"><g id="Capa_1-2" data-name="Capa 1"><path d="M640.11,401.11Q621.94,350,603.79,299a122,122,0,0,0-15.14-29.85c-12.66-17.93-29.1-30-48.88-35.93A96.09,96.09,0,0,0,512,229.55h-.1q-56.3,0-112.6,0H332.3q-61.49,0-123,0H209a82.24,82.24,0,0,0-12,.59,65.72,65.72,0,0,0-49.38,35.14,64.69,64.69,0,0,0-.39,59.65c12,23.75,32.7,36.49,59.78,36.84,17.54.23,35.36.19,52.6.14,10.77,0,21.9-.05,32.85,0h.23a62.75,62.75,0,0,0,33.67-9.73,103.63,103.63,0,0,0,21.18-17.77c3.67-4,7.28-8.14,10.77-12.14q3-3.41,5.94-6.79c.38-.42.75-.85,1.13-1.28a47,47,0,0,1,4.31-4.53c6.49-5.68,13.2-7.1,20.49-4.35s11.36,8.09,12.26,16.28c.43,3.91-.64,7.83-3.58,13.12-54.64,98.35-109.24,196.71-150.7,271.42a58.13,58.13,0,0,0-3.64,7.41,31.46,31.46,0,0,0,28.17,42.71c10.74.41,19.93-4,27.32-13.16,26-32.15,52.33-64.62,77.83-96,1.88-2.32,3.93-4.49,6.09-6.8l.61-.64a12.72,12.72,0,0,1,8.49-4.27c3.4-.29,7.41-.59,11.38-.68a55.75,55.75,0,0,0,52.73-67.17,62.74,62.74,0,0,0-8.46-19.88,25.39,25.39,0,0,1,42.7-27.47c.81,1.19,1.57,2.44,2.36,3.77L662.13,701.05l2.69,4.47c2.08,3.49,4.24,7.1,6.52,10.6a38.72,38.72,0,0,0,47.81,14.54c18.93-8.12,27.78-29.46,20.58-49.65C706.46,587.73,672.73,492.86,640.11,401.11ZM715.6,722.39a29.39,29.39,0,0,1-36.72-11.18c-2.18-3.35-4.3-6.89-6.34-10.31q-1.35-2.26-2.72-4.52L502,420.3l-.58-1c-.83-1.37-1.68-2.79-2.63-4.18A34.39,34.39,0,0,0,441,452.42a54.16,54.16,0,0,1,7.32,17.08,46.74,46.74,0,0,1-44.16,56.23c-4.2.1-8.38.41-11.91.71A21.67,21.67,0,0,0,378,533.52l-.59.64c-2.18,2.32-4.44,4.72-6.53,7.29-25.5,31.39-51.87,63.86-77.84,96-5.66,7-12,10.13-20,9.83a22.47,22.47,0,0,1-20.12-30.5,50,50,0,0,1,3.11-6.26c41.46-74.71,96.06-173.07,150.7-271.42,2.6-4.68,5.48-11,4.66-18.48-1.28-11.55-7.51-19.75-18-23.72s-20.62-1.83-29.59,6a54.49,54.49,0,0,0-5.18,5.4c-.35.41-.71.82-1.07,1.22-2,2.27-4,4.56-6,6.84-3.45,4-7,8.06-10.61,12a93.83,93.83,0,0,1-19.32,16.23,53.06,53.06,0,0,1-28.89,8.37h-.21c-11,0-22.12,0-32.9,0-17.2.05-35,.09-52.46-.14-23.85-.31-41.31-11-51.87-31.91a55.75,55.75,0,0,1,.35-51.43,56.79,56.79,0,0,1,42.69-30.38,73.86,73.86,0,0,1,10.67-.5h.35q61.48,0,123,0h66.95q56.31,0,112.61,0H512a87.47,87.47,0,0,1,25.24,3.27c18,5.4,32.48,16,44.11,32.5a113.06,113.06,0,0,1,14,27.68q18.16,51.06,36.32,102.13C664.25,495.88,698,590.75,731.26,684,737.61,701.86,727.94,717.1,715.6,722.39Z"/><path d="M864.63,274.84A451.4,451.4,0,1,0,900,450,448.51,448.51,0,0,0,864.63,274.84ZM450,892C206.28,892,8,693.72,8,450S206.28,8,450,8,892,206.28,892,450,693.72,892,450,892Z"/></g></g></svg>